# xmcd
#
# Track frame offsets:
#  150
#  15242
#  33683
#  49587
#  66106
#  84513
#  105826
#  129008
#  148198
#  164707
#  186696
#  213320
#  227583
#
# Disc length: 3282 seconds
#
# Revision: 0
# Processed by: cddbd v1.5.1PL0 Copyright (c) Steve Scherf et al.
# Submitted via: Collectorz.com_Music_Collector 6.9
#
DISCID=ac0cd00d
DTITLE=Maxine Brown - From The Heart
DYEAR=2004
DGENRE=Blues -  Blues Female Vocalist -  Blues Soul
TTITLE0=Keep On Keeping On
TTITLE1=A Sinner's Heart
TTITLE2=Let Me Know
TTITLE3=I Want To Be Loved
TTITLE4=Love Is In Command
TTITLE5=Finding Love
TTITLE6=Love Me By Name
TTITLE7=You Are The Dream
TTITLE8=Other Lady
TTITLE9=A Woman's Side Of The Bed
TTITLE10=Too Long Out In The Cold
TTITLE11=Make A Joyful Sound
TTITLE12=All In My Mind
EXTD=
EXTT0=
EXTT1=
EXTT2=
EXTT3=
EXTT4=
EXTT5=
EXTT6=
EXTT7=
EXTT8=
EXTT9=
EXTT10=
EXTT11=
EXTT12=
PLAYORDER=
